<svg viewBox="0 0 2475 2475" xmlns="http://www.w3.org/2000/svg" xmlns:xlink="http://www.w3.org/1999/xlink" xml:space="preserve" overflow="hidden"><defs><clipPath id="clip0"><rect x="963" y="0" width="2475" height="2475"/></clipPath></defs><g clip-path="url(#clip0)" transform="translate(-963 0)"><path d="M963 412.508C963 184.686 1147.69 0 1375.51 0L3025.49 0C3253.31 0 3438 184.686 3438 412.508L3438 2062.49C3438 2290.31 3253.31 2475 3025.49 2475L1375.51 2475C1147.69 2475 963 2290.31 963 2062.49Z" fill-rule="evenodd"/><path d="M2988.35 1072.82C3008.97 1011.72 3016.12 946.982 3009.33 882.935 3002.54 818.889 2981.96 757.013 2948.97 701.45 2900.06 617.407 2825.36 550.868 2735.64 511.432 2645.93 471.997 2545.83 461.705 2449.8 482.042 2406.48 433.877 2353.24 395.397 2293.63 369.177 2234.03 342.958 2169.43 329.604 2104.17 330.009 2005.99 329.775 1910.27 360.312 1830.81 417.217 1751.34 474.122 1692.25 554.455 1662.05 646.633 1598.09 659.552 1537.66 685.804 1484.81 723.63 1431.97 761.458 1387.92 809.986 1355.62 865.97 1306.33 949.782 1285.28 1046.87 1295.53 1143.25 1305.77 1239.62 1346.78 1330.29 1412.63 1402.18 1392.01 1463.28 1384.86 1528.02 1391.65 1592.07 1398.44 1656.11 1419.02 1717.99 1452.01 1773.55 1500.92 1857.59 1575.62 1924.12 1665.34 1963.56 1755.05 2002.99 1855.15 2013.29 1951.18 1992.96 1994.49 2041.12 2047.74 2079.6 2107.34 2105.82 2166.95 2132.04 2231.54 2145.4 2296.8 2144.99 2395.04 2145.25 2490.81 2114.69 2570.3 2057.75 2649.79 2000.81 2708.89 1920.42 2739.08 1828.19 2803.03 1815.27 2863.46 1789.02 2916.31 1751.19 2969.15 1713.37 3013.2 1664.83 3045.5 1608.85 3094.73 1525.05 3115.73 1427.98 3105.46 1331.64 3095.19 1235.31 3054.18 1144.68 2988.35 1072.82ZM2296.95 2026.34C2216.31 2026.45 2138.21 1998.59 2076.29 1947.62 2079.08 1946.12 2083.97 1943.47 2087.17 1941.54L2453.43 1732.8C2462.62 1727.64 2470.25 1720.15 2475.54 1711.12 2480.83 1702.08 2483.59 1691.81 2483.52 1681.38L2483.52 1171.9 2638.34 1260.1C2639.15 1260.5 2639.84 1261.09 2640.37 1261.82 2640.9 1262.55 2641.23 1263.4 2641.34 1264.28L2641.34 1686.21C2641.23 1776.33 2604.92 1862.73 2540.36 1926.48 2475.81 1990.24 2388.28 2026.14 2296.95 2026.34ZM1556.3 1714.23C1515.91 1645.37 1501.35 1564.69 1515.18 1486.3 1517.9 1487.91 1522.65 1490.77 1526.06 1492.71L1892.32 1701.45C1901.45 1706.71 1911.83 1709.49 1922.4 1709.49 1932.97 1709.49 1943.35 1706.71 1952.48 1701.45L2399.65 1446.69 2399.65 1623.09C2399.7 1623.99 2399.52 1624.89 2399.14 1625.71 2398.75 1626.53 2398.17 1627.24 2397.44 1627.78L2027.19 1838.71C1947.99 1883.71 1853.93 1895.88 1765.66 1872.54 1677.38 1849.2 1602.09 1792.27 1556.3 1714.23ZM1459.95 925.293C1500.17 856.341 1563.68 803.552 1639.38 776.159 1639.38 779.272 1639.2 784.785 1639.2 788.61L1639.2 1206.1C1639.14 1216.53 1641.89 1226.78 1647.17 1235.82 1652.45 1244.85 1660.08 1252.32 1669.26 1257.48L2116.43 1512.21 1961.62 1600.4C1960.86 1600.9 1959.98 1601.2 1959.07 1601.29 1958.16 1601.37 1957.24 1601.23 1956.4 1600.87L1586.11 1389.77C1507.05 1344.59 1449.38 1270.33 1425.73 1183.26 1402.08 1096.19 1414.38 1003.42 1459.95 925.293ZM2731.86 1217.34 2284.69 962.578 2439.5 874.414C2440.26 873.919 2441.14 873.615 2442.05 873.534 2442.96 873.452 2443.88 873.597 2444.72 873.951L2815.01 1084.88C2871.74 1117.21 2917.96 1164.82 2948.26 1222.13 2978.55 1279.44 2991.67 1344.09 2986.09 1408.49 2980.5 1472.9 2956.42 1534.4 2916.7 1585.79 2876.96 1637.19 2823.21 1676.35 2761.74 1698.7 2761.74 1695.55 2761.74 1690.04 2761.74 1686.21L2761.74 1268.72C2761.83 1258.31 2759.1 1248.06 2753.85 1239.03 2748.6 1230 2741.01 1222.52 2731.86 1217.34ZM2885.94 988.518C2883.22 986.871 2878.47 984.044 2875.06 982.116L2508.8 773.368C2499.67 768.114 2489.29 765.341 2478.72 765.341 2468.15 765.341 2457.77 768.114 2448.64 773.368L2001.47 1028.13 2001.47 851.731C2001.42 850.828 2001.6 849.93 2001.98 849.113 2002.37 848.296 2002.95 847.584 2003.69 847.044L2373.94 636.293C2430.66 604.021 2495.52 588.354 2560.94 591.125 2626.36 593.896 2689.62 614.99 2743.33 651.939 2797.04 688.889 2838.97 740.165 2864.23 799.772 2889.49 859.377 2897.02 924.844 2885.94 988.518ZM1917.31 1302.93 1762.46 1214.73C1761.65 1214.33 1760.95 1213.74 1760.42 1213.01 1759.9 1212.28 1759.56 1211.43 1759.45 1210.54L1759.45 788.61C1759.49 723.989 1778.19 660.715 1813.35 606.196 1848.52 551.677 1898.7 508.169 1958.01 480.765 2017.33 453.361 2083.32 443.194 2148.28 451.455 2213.24 459.716 2274.47 486.063 2324.8 527.412 2322.01 528.915 2317.15 531.563 2313.92 533.495L1947.66 742.24C1938.47 747.395 1930.84 754.872 1925.54 763.903 1920.25 772.932 1917.5 783.192 1917.56 793.619L1917.31 1302.93ZM2001.4 1124.02 2200.56 1010.53 2399.72 1123.95 2399.72 1350.87 2200.56 1464.3 2001.4 1350.87 2001.4 1124.02Z" fill="#10A37F" fill-rule="evenodd"/></g></svg>